<svg width="222" height="222" viewBox="0 0 222 222" fill="none" xmlns="http://www.w3.org/2000/svg">
<g filter="url(#filter0_d_60_504)">
<rect x="60" y="30" width="102" height="102" rx="26" fill="#4475F2"/>
</g>
<path d="M127.75 79.9376C127.756 82.4123 127.178 84.8536 126.063 87.0626C124.74 89.7096 122.706 91.936 120.189 93.4925C117.672 95.0489 114.772 95.8739 111.812 95.8751C109.338 95.8815 106.896 95.3033 104.687 94.1876L94 97.7501L97.5625 87.0626C96.4467 84.8536 95.8685 82.4123 95.875 79.9376C95.8761 76.9783 96.7011 74.0779 98.2576 71.5611C99.814 69.0443 102.04 67.0105 104.687 65.6876C106.896 64.5718 109.338 63.9936 111.812 64.0001H112.75C116.658 64.2157 120.349 65.8652 123.117 68.6329C125.885 71.4006 127.534 75.0919 127.75 79.0001V79.9376Z" stroke="white" stroke-width="5" stroke-linecap="round" stroke-linejoin="round"/>
<defs>
<filter id="filter0_d_60_504" x="0" y="0" width="222" height="222" filterUnits="userSpaceOnUse" color-interpolation-filters="sRGB">
<feFlood flood-opacity="0" result="BackgroundImageFix"/>
<feColorMatrix in="SourceAlpha" type="matrix" values="0 0 0 0 0 0 0 0 0 0 0 0 0 0 0 0 0 0 127 0" result="hardAlpha"/>
<feOffset dy="30"/>
<feGaussianBlur stdDeviation="30"/>
<feComposite in2="hardAlpha" operator="out"/>
<feColorMatrix type="matrix" values="0 0 0 0 0.278431 0 0 0 0 0.290196 0 0 0 0 0.341176 0 0 0 0.25 0"/>
<feBlend mode="normal" in2="BackgroundImageFix" result="effect1_dropShadow_60_504"/>
<feBlend mode="normal" in="SourceGraphic" in2="effect1_dropShadow_60_504" result="shape"/>
</filter>
</defs>
</svg>
